<svg width="10" height="10" viewBox="0 0 10 10" fill="none" xmlns="http://www.w3.org/2000/svg">
<g id="akar-icons:phone" clip-path="url(#clip0_1_18)">
<path id="Vector" d="M4.39739 2.59991L2.98781 0.972827C2.82531 0.785327 2.52739 0.786161 2.33864 0.975327L1.17948 2.13658C0.834477 2.48199 0.735727 2.99491 0.93531 3.40616C2.12765 5.8749 4.11866 7.8687 6.58573 9.06449C6.99656 9.26408 7.50906 9.16533 7.85406 8.81991L9.02406 7.64783C9.21364 7.45824 9.21406 7.15866 9.02489 6.99616L7.39156 5.59408C7.22073 5.44741 6.95531 5.46658 6.78406 5.63824L6.21573 6.20741C6.18663 6.2379 6.14833 6.25801 6.10671 6.26463C6.06508 6.27125 6.02243 6.26403 5.98531 6.24408C5.05633 5.70912 4.28572 4.93751 3.75198 4.00783C3.73199 3.97064 3.72475 3.92792 3.73137 3.88623C3.738 3.84453 3.75812 3.80616 3.78864 3.77699L4.35531 3.20991C4.52698 3.03741 4.54573 2.77074 4.39739 2.59949V2.59991Z" stroke="#EBDD6A" stroke-width="0.833333" stroke-linecap="round" stroke-linejoin="round"/>
</g>
<defs>
<clipPath id="clip0_1_18">
<rect width="10" height="10" fill="white"/>
</clipPath>
</defs>
</svg>
