<svg width="22" height="22" viewBox="0 0 22 22" fill="none" xmlns="http://www.w3.org/2000/svg">
<g id="Logo">
<path id="Vector" d="M6.62546 20.7882C-4.67232 19.5659 -0.212761 -3.04545 13.4633 4.59375C9.30066 2.7603 -2.59124 12.8436 6.62546 20.7882Z" fill="url(#paint0_linear_1_28)"/>
<path id="Vector_2" d="M16.3088 13.6189H21.4054C20.5399 17.5349 17.9906 19.2705 16.8185 19.9046C11.3721 22.4005 6.11576 19.1419 6.11578 15.5702C11.0548 20.6911 14.8188 16.5451 16.3088 13.6189Z" fill="url(#paint1_linear_1_28)"/>
<path id="Vector_3" d="M21.4054 9.42881C20.4541 -3.03785 10.5046 -0.450808 5.64869 2.40104C14.2109 0.44545 16.3514 6.27138 16.3514 9.42881C18.1352 9.53068 21.6433 9.67332 21.4054 9.42881Z" fill="url(#paint2_linear_1_28)"/>
</g>
<defs>
<linearGradient id="paint0_linear_1_28" x1="6.83622" y1="3.02124" x2="6.83622" y2="20.7882" gradientUnits="userSpaceOnUse">
<stop offset="0.346875" stop-color="#B78719"/>
<stop offset="0.64375" stop-color="#E9DA69"/>
</linearGradient>
<linearGradient id="paint1_linear_1_28" x1="13.7606" y1="13.6189" x2="13.7606" y2="20.7829" gradientUnits="userSpaceOnUse">
<stop offset="0.40625" stop-color="#E8D968"/>
<stop offset="0.614583" stop-color="#B7881C"/>
</linearGradient>
<linearGradient id="paint2_linear_1_28" x1="13.5328" y1="0.0434628" x2="13.5328" y2="9.5638" gradientUnits="userSpaceOnUse">
<stop offset="0.107292" stop-color="#ECDF6D"/>
<stop offset="0.461458" stop-color="#E8D968"/>
<stop offset="0.794792" stop-color="#BA8923"/>
</linearGradient>
</defs>
</svg>
