<svg width="10" height="10" viewBox="0 0 10 10" fill="none" xmlns="http://www.w3.org/2000/svg">
<g id="system-uicons:location">
<g id="Group">
<path id="Vector" fill-rule="evenodd" clip-rule="evenodd" d="M4.99993 8.82859L5.30041 8.49001C5.64136 8.09954 5.94803 7.72906 6.22089 7.37668L6.44612 7.07954C7.3866 5.8124 7.85708 4.80668 7.85708 4.06335C7.85708 2.47668 6.57803 1.19049 4.99993 1.19049C3.42184 1.19049 2.14279 2.47668 2.14279 4.06335C2.14279 4.80668 2.61327 5.8124 3.55374 7.07954L3.77898 7.37668C4.16824 7.87544 4.57549 8.35989 4.99993 8.82906V8.82859Z" stroke="#EBDD6A" stroke-width="0.8375" stroke-linecap="round" stroke-linejoin="round"/>
<path id="Vector_2" d="M4.99995 5.23807C5.65744 5.23807 6.19043 4.70507 6.19043 4.04759C6.19043 3.39011 5.65744 2.85712 4.99995 2.85712C4.34247 2.85712 3.80948 3.39011 3.80948 4.04759C3.80948 4.70507 4.34247 5.23807 4.99995 5.23807Z" stroke="#EBDD6A" stroke-width="0.8375" stroke-linecap="round" stroke-linejoin="round"/>
</g>
</g>
</svg>
